solid OpenSCAD_Model
  facet normal 0.999506 0.0314227 0
    outer loop
      vertex 11.55 0.25 5.1
      vertex 11.5272 0.975231 4.1
      vertex 11.5272 0.975231 5.1
    endloop
  endfacet
  facet normal 0.999506 0.0314227 0
    outer loop
      vertex 11.5272 0.975231 4.1
      vertex 11.55 0.25 5.1
      vertex 11.55 0.25 4.1
    endloop
  endfacet
  facet normal 0.99556 0.0941302 0
    outer loop
      vertex 11.5272 0.975231 5.1
      vertex 11.4589 1.6976 4.1
      vertex 11.4589 1.6976 5.1
    endloop
  endfacet
  facet normal 0.99556 0.0941302 0
    outer loop
      vertex 11.4589 1.6976 4.1
      vertex 11.5272 0.975231 5.1
      vertex 11.5272 0.975231 4.1
    endloop
  endfacet
  facet normal 0.98769 0.156426 0
    outer loop
      vertex 11.4589 1.6976 5.1
      vertex 11.3454 2.41425 4.1
      vertex 11.3454 2.41425 5.1
    endloop
  endfacet
  facet normal 0.98769 0.156426 0
    outer loop
      vertex 11.3454 2.41425 4.1
      vertex 11.4589 1.6976 5.1
      vertex 11.4589 1.6976 4.1
    endloop
  endfacet
  facet normal 0.975912 0.218165 0
    outer loop
      vertex 11.3454 2.41425 5.1
      vertex 11.1871 3.12237 4.1
      vertex 11.1871 3.12237 5.1
    endloop
  endfacet
  facet normal 0.975912 0.218165 0
    outer loop
      vertex 11.1871 3.12237 4.1
      vertex 11.3454 2.41425 5.1
      vertex 11.3454 2.41425 4.1
    endloop
  endfacet
  facet normal 0.960306 0.278949 0
    outer loop
      vertex 11.1871 3.12237 5.1
      vertex 10.9847 3.81915 4.1
      vertex 10.9847 3.81915 5.1
    endloop
  endfacet
  facet normal 0.960306 0.278949 0
    outer loop
      vertex 10.9847 3.81915 4.1
      vertex 11.1871 3.12237 5.1
      vertex 11.1871 3.12237 4.1
    endloop
  endfacet
  facet normal 0.940874 0.338758 0
    outer loop
      vertex 10.9847 3.81915 5.1
      vertex 10.7389 4.50184 4.1
      vertex 10.7389 4.50184 5.1
    endloop
  endfacet
  facet normal 0.940874 0.338758 0
    outer loop
      vertex 10.7389 4.50184 4.1
      vertex 10.9847 3.81915 5.1
      vertex 10.9847 3.81915 4.1
    endloop
  endfacet
  facet normal 0.917787 0.397072 0
    outer loop
      vertex 10.7389 4.50184 5.1
      vertex 10.4508 5.16775 4.1
      vertex 10.4508 5.16775 5.1
    endloop
  endfacet
  facet normal 0.917787 0.397072 0
    outer loop
      vertex 10.4508 5.16775 4.1
      vertex 10.7389 4.50184 5.1
      vertex 10.7389 4.50184 4.1
    endloop
  endfacet
  facet normal 0.890955 0.454091 0
    outer loop
      vertex 10.4508 5.16775 5.1
      vertex 10.1213 5.81425 4.1
      vertex 10.1213 5.81425 5.1
    endloop
  endfacet
  facet normal 0.890955 0.454091 0
    outer loop
      vertex 10.1213 5.81425 4.1
      vertex 10.4508 5.16775 5.1
      vertex 10.4508 5.16775 4.1
    endloop
  endfacet
  facet normal 0.860771 0.508993 0
    outer loop
      vertex 10.1213 5.81425 5.1
      vertex 9.75199 6.4388 4.1
      vertex 9.75199 6.4388 5.1
    endloop
  endfacet
  facet normal 0.860771 0.508993 0
    outer loop
      vertex 9.75199 6.4388 4.1
      vertex 10.1213 5.81425 5.1
      vertex 10.1213 5.81425 4.1
    endloop
  endfacet
  facet normal 0.827081 0.562082 0
    outer loop
      vertex 9.75199 6.4388 5.1
      vertex 9.34415 7.03892 4.1
      vertex 9.34415 7.03892 5.1
    endloop
  endfacet
  facet normal 0.827081 0.562082 0
    outer loop
      vertex 9.34415 7.03892 4.1
      vertex 9.75199 6.4388 5.1
      vertex 9.75199 6.4388 4.1
    endloop
  endfacet
  facet normal 0.790155 0.612907 0
    outer loop
      vertex 9.34415 7.03892 5.1
      vertex 8.89943 7.61225 4.1
      vertex 8.89943 7.61225 5.1
    endloop
  endfacet
  facet normal 0.790155 0.612907 0
    outer loop
      vertex 8.89943 7.61225 4.1
      vertex 9.34415 7.03892 5.1
      vertex 9.34415 7.03892 4.1
    endloop
  endfacet
  facet normal 0.75011 0.661313 0
    outer loop
      vertex 8.89943 7.61225 5.1
      vertex 8.41959 8.15652 4.1
      vertex 8.41959 8.15652 5.1
    endloop
  endfacet
  facet normal 0.75011 0.661313 0
    outer loop
      vertex 8.41959 8.15652 4.1
      vertex 8.89943 7.61225 5.1
      vertex 8.89943 7.61225 4.1
    endloop
  endfacet
  facet normal 0.707107 0.707107 0
    outer loop
      vertex 8.41959 8.15652 5.1
      vertex 7.90652 8.66959 4.1
      vertex 7.90652 8.66959 5.1
    endloop
  endfacet
  facet normal 0.707107 0.707107 0
    outer loop
      vertex 7.90652 8.66959 4.1
      vertex 8.41959 8.15652 5.1
      vertex 8.41959 8.15652 4.1
    endloop
  endfacet
  facet normal 0.661313 0.75011 -0
    outer loop
      vertex 7.90652 8.66959 4.1
      vertex 7.36225 9.14943 5.1
      vertex 7.90652 8.66959 5.1
    endloop
  endfacet
  facet normal 0.661313 0.75011 0
    outer loop
      vertex 7.36225 9.14943 5.1
      vertex 7.90652 8.66959 4.1
      vertex 7.36225 9.14943 4.1
    endloop
  endfacet
  facet normal 0.612907 0.790155 -0
    outer loop
      vertex 7.36225 9.14943 4.1
      vertex 6.78892 9.59415 5.1
      vertex 7.36225 9.14943 5.1
    endloop
  endfacet
  facet normal 0.612907 0.790155 0
    outer loop
      vertex 6.78892 9.59415 5.1
      vertex 7.36225 9.14943 4.1
      vertex 6.78892 9.59415 4.1
    endloop
  endfacet
  facet normal 0.562092 0.827075 -0
    outer loop
      vertex 6.78892 9.59415 4.1
      vertex 6.1888 10.002 5.1
      vertex 6.78892 9.59415 5.1
    endloop
  endfacet
  facet normal 0.562092 0.827075 0
    outer loop
      vertex 6.1888 10.002 5.1
      vertex 6.78892 9.59415 4.1
      vertex 6.1888 10.002 4.1
    endloop
  endfacet
  facet normal 0.508982 0.860777 -0
    outer loop
      vertex 6.1888 10.002 4.1
      vertex 5.56425 10.3713 5.1
      vertex 6.1888 10.002 5.1
    endloop
  endfacet
  facet normal 0.508982 0.860777 0
    outer loop
      vertex 5.56425 10.3713 5.1
      vertex 6.1888 10.002 4.1
      vertex 5.56425 10.3713 4.1
    endloop
  endfacet
  facet normal 0.454091 0.890955 -0
    outer loop
      vertex 5.56425 10.3713 4.1
      vertex 4.91775 10.7008 5.1
      vertex 5.56425 10.3713 5.1
    endloop
  endfacet
  facet normal 0.454091 0.890955 0
    outer loop
      vertex 4.91775 10.7008 5.1
      vertex 5.56425 10.3713 4.1
      vertex 4.91775 10.7008 4.1
    endloop
  endfacet
  facet normal 0.397072 0.917787 -0
    outer loop
      vertex 4.91775 10.7008 4.1
      vertex 4.25184 10.9889 5.1
      vertex 4.91775 10.7008 5.1
    endloop
  endfacet
  facet normal 0.397072 0.917787 0
    outer loop
      vertex 4.25184 10.9889 5.1
      vertex 4.91775 10.7008 4.1
      vertex 4.25184 10.9889 4.1
    endloop
  endfacet
  facet normal 0.338758 0.940874 -0
    outer loop
      vertex 4.25184 10.9889 4.1
      vertex 3.56915 11.2347 5.1
      vertex 4.25184 10.9889 5.1
    endloop
  endfacet
  facet normal 0.338758 0.940874 0
    outer loop
      vertex 3.56915 11.2347 5.1
      vertex 4.25184 10.9889 4.1
      vertex 3.56915 11.2347 4.1
    endloop
  endfacet
  facet normal 0.278949 0.960306 -0
    outer loop
      vertex 3.56915 11.2347 4.1
      vertex 2.87237 11.4371 5.1
      vertex 3.56915 11.2347 5.1
    endloop
  endfacet
  facet normal 0.278949 0.960306 0
    outer loop
      vertex 2.87237 11.4371 5.1
      vertex 3.56915 11.2347 4.1
      vertex 2.87237 11.4371 4.1
    endloop
  endfacet
  facet normal 0.218165 0.975912 -0
    outer loop
      vertex 2.87237 11.4371 4.1
      vertex 2.16425 11.5954 5.1
      vertex 2.87237 11.4371 5.1
    endloop
  endfacet
  facet normal 0.218165 0.975912 0
    outer loop
      vertex 2.16425 11.5954 5.1
      vertex 2.87237 11.4371 4.1
      vertex 2.16425 11.5954 4.1
    endloop
  endfacet
  facet normal 0.156426 0.98769 -0
    outer loop
      vertex 2.16425 11.5954 4.1
      vertex 1.4476 11.7089 5.1
      vertex 2.16425 11.5954 5.1
    endloop
  endfacet
  facet normal 0.156426 0.98769 0
    outer loop
      vertex 1.4476 11.7089 5.1
      vertex 2.16425 11.5954 4.1
      vertex 1.4476 11.7089 4.1
    endloop
  endfacet
  facet normal 0.0941302 0.99556 -0
    outer loop
      vertex 1.4476 11.7089 4.1
      vertex 0.725231 11.7772 5.1
      vertex 1.4476 11.7089 5.1
    endloop
  endfacet
  facet normal 0.0941302 0.99556 0
    outer loop
      vertex 0.725231 11.7772 5.1
      vertex 1.4476 11.7089 4.1
      vertex 0.725231 11.7772 4.1
    endloop
  endfacet
  facet normal 0.0314227 0.999506 -0
    outer loop
      vertex 0.725231 11.7772 4.1
      vertex 0 11.8 5.1
      vertex 0.725231 11.7772 5.1
    endloop
  endfacet
  facet normal 0.0314227 0.999506 0
    outer loop
      vertex 0 11.8 5.1
      vertex 0.725231 11.7772 4.1
      vertex 0 11.8 4.1
    endloop
  endfacet
  facet normal -0.0314227 0.999506 0
    outer loop
      vertex 0 11.8 4.1
      vertex -0.725231 11.7772 5.1
      vertex 0 11.8 5.1
    endloop
  endfacet
  facet normal -0.0314227 0.999506 0
    outer loop
      vertex -0.725231 11.7772 5.1
      vertex 0 11.8 4.1
      vertex -0.725231 11.7772 4.1
    endloop
  endfacet
  facet normal -0.0941302 0.99556 0
    outer loop
      vertex -0.725231 11.7772 4.1
      vertex -1.4476 11.7089 5.1
      vertex -0.725231 11.7772 5.1
    endloop
  endfacet
  facet normal -0.0941302 0.99556 0
    outer loop
      vertex -1.4476 11.7089 5.1
      vertex -0.725231 11.7772 4.1
      vertex -1.4476 11.7089 4.1
    endloop
  endfacet
  facet normal -0.156426 0.98769 0
    outer loop
      vertex -1.4476 11.7089 4.1
      vertex -2.16425 11.5954 5.1
      vertex -1.4476 11.7089 5.1
    endloop
  endfacet
  facet normal -0.156426 0.98769 0
    outer loop
      vertex -2.16425 11.5954 5.1
      vertex -1.4476 11.7089 4.1
      vertex -2.16425 11.5954 4.1
    endloop
  endfacet
  facet normal -0.218165 0.975912 0
    outer loop
      vertex -2.16425 11.5954 4.1
      vertex -2.87237 11.4371 5.1
      vertex -2.16425 11.5954 5.1
    endloop
  endfacet
  facet normal -0.218165 0.975912 0
    outer loop
      vertex -2.87237 11.4371 5.1
      vertex -2.16425 11.5954 4.1
      vertex -2.87237 11.4371 4.1
    endloop
  endfacet
  facet normal -0.278949 0.960306 0
    outer loop
      vertex -2.87237 11.4371 4.1
      vertex -3.56915 11.2347 5.1
      vertex -2.87237 11.4371 5.1
    endloop
  endfacet
  facet normal -0.278949 0.960306 0
    outer loop
      vertex -3.56915 11.2347 5.1
      vertex -2.87237 11.4371 4.1
      vertex -3.56915 11.2347 4.1
    endloop
  endfacet
  facet normal -0.338758 0.940874 0
    outer loop
      vertex -3.56915 11.2347 4.1
      vertex -4.25184 10.9889 5.1
      vertex -3.56915 11.2347 5.1
    endloop
  endfacet
  facet normal -0.338758 0.940874 0
    outer loop
      vertex -4.25184 10.9889 5.1
      vertex -3.56915 11.2347 4.1
      vertex -4.25184 10.9889 4.1
    endloop
  endfacet
  facet normal -0.397072 0.917787 0
    outer loop
      vertex -4.25184 10.9889 4.1
      vertex -4.91775 10.7008 5.1
      vertex -4.25184 10.9889 5.1
    endloop
  endfacet
  facet normal -0.397072 0.917787 0
    outer loop
      vertex -4.91775 10.7008 5.1
      vertex -4.25184 10.9889 4.1
      vertex -4.91775 10.7008 4.1
    endloop
  endfacet
  facet normal -0.454091 0.890955 0
    outer loop
      vertex -4.91775 10.7008 4.1
      vertex -5.56425 10.3713 5.1
      vertex -4.91775 10.7008 5.1
    endloop
  endfacet
  facet normal -0.454091 0.890955 0
    outer loop
      vertex -5.56425 10.3713 5.1
      vertex -4.91775 10.7008 4.1
      vertex -5.56425 10.3713 4.1
    endloop
  endfacet
  facet normal -0.508982 0.860777 0
    outer loop
      vertex -5.56425 10.3713 4.1
      vertex -6.1888 10.002 5.1
      vertex -5.56425 10.3713 5.1
    endloop
  endfacet
  facet normal -0.508982 0.860777 0
    outer loop
      vertex -6.1888 10.002 5.1
      vertex -5.56425 10.3713 4.1
      vertex -6.1888 10.002 4.1
    endloop
  endfacet
  facet normal -0.562092 0.827075 0
    outer loop
      vertex -6.1888 10.002 4.1
      vertex -6.78892 9.59415 5.1
      vertex -6.1888 10.002 5.1
    endloop
  endfacet
  facet normal -0.562092 0.827075 0
    outer loop
      vertex -6.78892 9.59415 5.1
      vertex -6.1888 10.002 4.1
      vertex -6.78892 9.59415 4.1
    endloop
  endfacet
  facet normal -0.612907 0.790155 0
    outer loop
      vertex -6.78892 9.59415 4.1
      vertex -7.36225 9.14943 5.1
      vertex -6.78892 9.59415 5.1
    endloop
  endfacet
  facet normal -0.612907 0.790155 0
    outer loop
      vertex -7.36225 9.14943 5.1
      vertex -6.78892 9.59415 4.1
      vertex -7.36225 9.14943 4.1
    endloop
  endfacet
  facet normal -0.661313 0.75011 0
    outer loop
      vertex -7.36225 9.14943 4.1
      vertex -7.90652 8.66959 5.1
      vertex -7.36225 9.14943 5.1
    endloop
  endfacet
  facet normal -0.661313 0.75011 0
    outer loop
      vertex -7.90652 8.66959 5.1
      vertex -7.36225 9.14943 4.1
      vertex -7.90652 8.66959 4.1
    endloop
  endfacet
  facet normal -0.707107 0.707107 0
    outer loop
      vertex -8.41959 8.15652 4.1
      vertex -7.90652 8.66959 5.1
      vertex -7.90652 8.66959 4.1
    endloop
  endfacet
  facet normal -0.707107 0.707107 0
    outer loop
      vertex -7.90652 8.66959 5.1
      vertex -8.41959 8.15652 4.1
      vertex -8.41959 8.15652 5.1
    endloop
  endfacet
  facet normal -0.75011 0.661313 0
    outer loop
      vertex -8.89943 7.61225 4.1
      vertex -8.41959 8.15652 5.1
      vertex -8.41959 8.15652 4.1
    endloop
  endfacet
  facet normal -0.75011 0.661313 0
    outer loop
      vertex -8.41959 8.15652 5.1
      vertex -8.89943 7.61225 4.1
      vertex -8.89943 7.61225 5.1
    endloop
  endfacet
  facet normal -0.790155 0.612907 0
    outer loop
      vertex -9.34415 7.03892 4.1
      vertex -8.89943 7.61225 5.1
      vertex -8.89943 7.61225 4.1
    endloop
  endfacet
  facet normal -0.790155 0.612907 0
    outer loop
      vertex -8.89943 7.61225 5.1
      vertex -9.34415 7.03892 4.1
      vertex -9.34415 7.03892 5.1
    endloop
  endfacet
  facet normal -0.827081 0.562082 0
    outer loop
      vertex -9.75199 6.4388 4.1
      vertex -9.34415 7.03892 5.1
      vertex -9.34415 7.03892 4.1
    endloop
  endfacet
  facet normal -0.827081 0.562082 0
    outer loop
      vertex -9.34415 7.03892 5.1
      vertex -9.75199 6.4388 4.1
      vertex -9.75199 6.4388 5.1
    endloop
  endfacet
  facet normal -0.860771 0.508993 0
    outer loop
      vertex -10.1213 5.81425 4.1
      vertex -9.75199 6.4388 5.1
      vertex -9.75199 6.4388 4.1
    endloop
  endfacet
  facet normal -0.860771 0.508993 0
    outer loop
      vertex -9.75199 6.4388 5.1
      vertex -10.1213 5.81425 4.1
      vertex -10.1213 5.81425 5.1
    endloop
  endfacet
  facet normal -0.890955 0.454091 0
    outer loop
      vertex -10.4508 5.16775 4.1
      vertex -10.1213 5.81425 5.1
      vertex -10.1213 5.81425 4.1
    endloop
  endfacet
  facet normal -0.890955 0.454091 0
    outer loop
      vertex -10.1213 5.81425 5.1
      vertex -10.4508 5.16775 4.1
      vertex -10.4508 5.16775 5.1
    endloop
  endfacet
  facet normal -0.917787 0.397072 0
    outer loop
      vertex -10.7389 4.50184 4.1
      vertex -10.4508 5.16775 5.1
      vertex -10.4508 5.16775 4.1
    endloop
  endfacet
  facet normal -0.917787 0.397072 0
    outer loop
      vertex -10.4508 5.16775 5.1
      vertex -10.7389 4.50184 4.1
      vertex -10.7389 4.50184 5.1
    endloop
  endfacet
  facet normal -0.940874 0.338758 0
    outer loop
      vertex -10.9847 3.81915 4.1
      vertex -10.7389 4.50184 5.1
      vertex -10.7389 4.50184 4.1
    endloop
  endfacet
  facet normal -0.940874 0.338758 0
    outer loop
      vertex -10.7389 4.50184 5.1
      vertex -10.9847 3.81915 4.1
      vertex -10.9847 3.81915 5.1
    endloop
  endfacet
  facet normal -0.960306 0.278949 0
    outer loop
      vertex -11.1871 3.12237 4.1
      vertex -10.9847 3.81915 5.1
      vertex -10.9847 3.81915 4.1
    endloop
  endfacet
  facet normal -0.960306 0.278949 0
    outer loop
      vertex -10.9847 3.81915 5.1
      vertex -11.1871 3.12237 4.1
      vertex -11.1871 3.12237 5.1
    endloop
  endfacet
  facet normal -0.975912 0.218165 0
    outer loop
      vertex -11.3454 2.41425 4.1
      vertex -11.1871 3.12237 5.1
      vertex -11.1871 3.12237 4.1
    endloop
  endfacet
  facet normal -0.975912 0.218165 0
    outer loop
      vertex -11.1871 3.12237 5.1
      vertex -11.3454 2.41425 4.1
      vertex -11.3454 2.41425 5.1
    endloop
  endfacet
  facet normal -0.98769 0.156426 0
    outer loop
      vertex -11.4589 1.6976 4.1
      vertex -11.3454 2.41425 5.1
      vertex -11.3454 2.41425 4.1
    endloop
  endfacet
  facet normal -0.98769 0.156426 0
    outer loop
      vertex -11.3454 2.41425 5.1
      vertex -11.4589 1.6976 4.1
      vertex -11.4589 1.6976 5.1
    endloop
  endfacet
  facet normal -0.99556 0.0941302 0
    outer loop
      vertex -11.5272 0.975231 4.1
      vertex -11.4589 1.6976 5.1
      vertex -11.4589 1.6976 4.1
    endloop
  endfacet
  facet normal -0.99556 0.0941302 0
    outer loop
      vertex -11.4589 1.6976 5.1
      vertex -11.5272 0.975231 4.1
      vertex -11.5272 0.975231 5.1
    endloop
  endfacet
  facet normal -0.999506 0.0314227 0
    outer loop
      vertex -11.55 0.25 4.1
      vertex -11.5272 0.975231 5.1
      vertex -11.5272 0.975231 4.1
    endloop
  endfacet
  facet normal -0.999506 0.0314227 0
    outer loop
      vertex -11.5272 0.975231 5.1
      vertex -11.55 0.25 4.1
      vertex -11.55 0.25 5.1
    endloop
  endfacet
  facet normal -0.999506 -0.0314227 0
    outer loop
      vertex -11.5272 -0.475231 4.1
      vertex -11.55 0.25 5.1
      vertex -11.55 0.25 4.1
    endloop
  endfacet
  facet normal -0.999506 -0.0314227 0
    outer loop
      vertex -11.55 0.25 5.1
      vertex -11.5272 -0.475231 4.1
      vertex -11.5272 -0.475231 5.1
    endloop
  endfacet
  facet normal -0.99556 -0.0941302 0
    outer loop
      vertex -11.4589 -1.1976 4.1
      vertex -11.5272 -0.475231 5.1
      vertex -11.5272 -0.475231 4.1
    endloop
  endfacet
  facet normal -0.99556 -0.0941302 0
    outer loop
      vertex -11.5272 -0.475231 5.1
      vertex -11.4589 -1.1976 4.1
      vertex -11.4589 -1.1976 5.1
    endloop
  endfacet
  facet normal -0.98769 -0.156426 0
    outer loop
      vertex -11.3454 -1.91425 4.1
      vertex -11.4589 -1.1976 5.1
      vertex -11.4589 -1.1976 4.1
    endloop
  endfacet
  facet normal -0.98769 -0.156426 0
    outer loop
      vertex -11.4589 -1.1976 5.1
      vertex -11.3454 -1.91425 4.1
      vertex -11.3454 -1.91425 5.1
    endloop
  endfacet
  facet normal -0.975912 -0.218165 0
    outer loop
      vertex -11.1871 -2.62237 4.1
      vertex -11.3454 -1.91425 5.1
      vertex -11.3454 -1.91425 4.1
    endloop
  endfacet
  facet normal -0.975912 -0.218165 0
    outer loop
      vertex -11.3454 -1.91425 5.1
      vertex -11.1871 -2.62237 4.1
      vertex -11.1871 -2.62237 5.1
    endloop
  endfacet
  facet normal -0.960306 -0.278949 0
    outer loop
      vertex -10.9847 -3.31915 4.1
      vertex -11.1871 -2.62237 5.1
      vertex -11.1871 -2.62237 4.1
    endloop
  endfacet
  facet normal -0.960306 -0.278949 0
    outer loop
      vertex -11.1871 -2.62237 5.1
      vertex -10.9847 -3.31915 4.1
      vertex -10.9847 -3.31915 5.1
    endloop
  endfacet
  facet normal -0.940874 -0.338758 0
    outer loop
      vertex -10.7389 -4.00184 4.1
      vertex -10.9847 -3.31915 5.1
      vertex -10.9847 -3.31915 4.1
    endloop
  endfacet
  facet normal -0.940874 -0.338758 0
    outer loop
      vertex -10.9847 -3.31915 5.1
      vertex -10.7389 -4.00184 4.1
      vertex -10.7389 -4.00184 5.1
    endloop
  endfacet
  facet normal -0.917787 -0.397072 0
    outer loop
      vertex -10.4508 -4.66775 4.1
      vertex -10.7389 -4.00184 5.1
      vertex -10.7389 -4.00184 4.1
    endloop
  endfacet
  facet normal -0.917787 -0.397072 0
    outer loop
      vertex -10.7389 -4.00184 5.1
      vertex -10.4508 -4.66775 4.1
      vertex -10.4508 -4.66775 5.1
    endloop
  endfacet
  facet normal -0.890955 -0.454091 0
    outer loop
      vertex -10.1213 -5.31425 4.1
      vertex -10.4508 -4.66775 5.1
      vertex -10.4508 -4.66775 4.1
    endloop
  endfacet
  facet normal -0.890955 -0.454091 0
    outer loop
      vertex -10.4508 -4.66775 5.1
      vertex -10.1213 -5.31425 4.1
      vertex -10.1213 -5.31425 5.1
    endloop
  endfacet
  facet normal -0.860771 -0.508993 0
    outer loop
      vertex -9.75199 -5.9388 4.1
      vertex -10.1213 -5.31425 5.1
      vertex -10.1213 -5.31425 4.1
    endloop
  endfacet
  facet normal -0.860771 -0.508993 0
    outer loop
      vertex -10.1213 -5.31425 5.1
      vertex -9.75199 -5.9388 4.1
      vertex -9.75199 -5.9388 5.1
    endloop
  endfacet
  facet normal -0.827081 -0.562082 0
    outer loop
      vertex -9.34415 -6.53892 4.1
      vertex -9.75199 -5.9388 5.1
      vertex -9.75199 -5.9388 4.1
    endloop
  endfacet
  facet normal -0.827081 -0.562082 0
    outer loop
      vertex -9.75199 -5.9388 5.1
      vertex -9.34415 -6.53892 4.1
      vertex -9.34415 -6.53892 5.1
    endloop
  endfacet
  facet normal -0.790155 -0.612907 0
    outer loop
      vertex -8.89943 -7.11225 4.1
      vertex -9.34415 -6.53892 5.1
      vertex -9.34415 -6.53892 4.1
    endloop
  endfacet
  facet normal -0.790155 -0.612907 0
    outer loop
      vertex -9.34415 -6.53892 5.1
      vertex -8.89943 -7.11225 4.1
      vertex -8.89943 -7.11225 5.1
    endloop
  endfacet
  facet normal -0.75011 -0.661313 0
    outer loop
      vertex -8.41959 -7.65652 4.1
      vertex -8.89943 -7.11225 5.1
      vertex -8.89943 -7.11225 4.1
    endloop
  endfacet
  facet normal -0.75011 -0.661313 0
    outer loop
      vertex -8.89943 -7.11225 5.1
      vertex -8.41959 -7.65652 4.1
      vertex -8.41959 -7.65652 5.1
    endloop
  endfacet
  facet normal -0.707107 -0.707107 0
    outer loop
      vertex -7.90652 -8.16959 4.1
      vertex -8.41959 -7.65652 5.1
      vertex -8.41959 -7.65652 4.1
    endloop
  endfacet
  facet normal -0.707107 -0.707107 0
    outer loop
      vertex -8.41959 -7.65652 5.1
      vertex -7.90652 -8.16959 4.1
      vertex -7.90652 -8.16959 5.1
    endloop
  endfacet
  facet normal -0.661313 -0.75011 0
    outer loop
      vertex -7.90652 -8.16959 4.1
      vertex -7.36225 -8.64943 5.1
      vertex -7.90652 -8.16959 5.1
    endloop
  endfacet
  facet normal -0.661313 -0.75011 -0
    outer loop
      vertex -7.36225 -8.64943 5.1
      vertex -7.90652 -8.16959 4.1
      vertex -7.36225 -8.64943 4.1
    endloop
  endfacet
  facet normal -0.612907 -0.790155 0
    outer loop
      vertex -7.36225 -8.64943 4.1
      vertex -6.78892 -9.09415 5.1
      vertex -7.36225 -8.64943 5.1
    endloop
  endfacet
  facet normal -0.612907 -0.790155 -0
    outer loop
      vertex -6.78892 -9.09415 5.1
      vertex -7.36225 -8.64943 4.1
      vertex -6.78892 -9.09415 4.1
    endloop
  endfacet
  facet normal -0.562082 -0.827081 0
    outer loop
      vertex -6.78892 -9.09415 4.1
      vertex -6.1888 -9.50199 5.1
      vertex -6.78892 -9.09415 5.1
    endloop
  endfacet
  facet normal -0.562082 -0.827081 -0
    outer loop
      vertex -6.1888 -9.50199 5.1
      vertex -6.78892 -9.09415 4.1
      vertex -6.1888 -9.50199 4.1
    endloop
  endfacet
  facet normal -0.509033 -0.860747 0
    outer loop
      vertex -6.1888 -9.50199 4.1
      vertex -5.56425 -9.87134 5.1
      vertex -6.1888 -9.50199 5.1
    endloop
  endfacet
  facet normal -0.509033 -0.860747 -0
    outer loop
      vertex -5.56425 -9.87134 5.1
      vertex -6.1888 -9.50199 4.1
      vertex -5.56425 -9.87134 4.1
    endloop
  endfacet
  facet normal -0.454047 -0.890978 0
    outer loop
      vertex -5.56425 -9.87134 4.1
      vertex -4.91775 -10.2008 5.1
      vertex -5.56425 -9.87134 5.1
    endloop
  endfacet
  facet normal -0.454047 -0.890978 -0
    outer loop
      vertex -4.91775 -10.2008 5.1
      vertex -5.56425 -9.87134 4.1
      vertex -4.91775 -10.2008 4.1
    endloop
  endfacet
  facet normal -0.397072 -0.917787 0
    outer loop
      vertex -4.91775 -10.2008 4.1
      vertex -4.25184 -10.4889 5.1
      vertex -4.91775 -10.2008 5.1
    endloop
  endfacet
  facet normal -0.397072 -0.917787 -0
    outer loop
      vertex -4.25184 -10.4889 5.1
      vertex -4.91775 -10.2008 4.1
      vertex -4.25184 -10.4889 4.1
    endloop
  endfacet
  facet normal -0.338758 -0.940874 0
    outer loop
      vertex -4.25184 -10.4889 4.1
      vertex -3.56915 -10.7347 5.1
      vertex -4.25184 -10.4889 5.1
    endloop
  endfacet
  facet normal -0.338758 -0.940874 -0
    outer loop
      vertex -3.56915 -10.7347 5.1
      vertex -4.25184 -10.4889 4.1
      vertex -3.56915 -10.7347 4.1
    endloop
  endfacet
  facet normal -0.278949 -0.960306 0
    outer loop
      vertex -3.56915 -10.7347 4.1
      vertex -2.87237 -10.9371 5.1
      vertex -3.56915 -10.7347 5.1
    endloop
  endfacet
  facet normal -0.278949 -0.960306 -0
    outer loop
      vertex -2.87237 -10.9371 5.1
      vertex -3.56915 -10.7347 4.1
      vertex -2.87237 -10.9371 4.1
    endloop
  endfacet
  facet normal -0.218165 -0.975912 0
    outer loop
      vertex -2.87237 -10.9371 4.1
      vertex -2.16425 -11.0954 5.1
      vertex -2.87237 -10.9371 5.1
    endloop
  endfacet
  facet normal -0.218165 -0.975912 -0
    outer loop
      vertex -2.16425 -11.0954 5.1
      vertex -2.87237 -10.9371 4.1
      vertex -2.16425 -11.0954 4.1
    endloop
  endfacet
  facet normal -0.156426 -0.98769 0
    outer loop
      vertex -2.16425 -11.0954 4.1
      vertex -1.4476 -11.2089 5.1
      vertex -2.16425 -11.0954 5.1
    endloop
  endfacet
  facet normal -0.156426 -0.98769 -0
    outer loop
      vertex -1.4476 -11.2089 5.1
      vertex -2.16425 -11.0954 4.1
      vertex -1.4476 -11.2089 4.1
    endloop
  endfacet
  facet normal -0.0941302 -0.99556 0
    outer loop
      vertex -1.4476 -11.2089 4.1
      vertex -0.725231 -11.2772 5.1
      vertex -1.4476 -11.2089 5.1
    endloop
  endfacet
  facet normal -0.0941302 -0.99556 -0
    outer loop
      vertex -0.725231 -11.2772 5.1
      vertex -1.4476 -11.2089 4.1
      vertex -0.725231 -11.2772 4.1
    endloop
  endfacet
  facet normal -0.0314227 -0.999506 0
    outer loop
      vertex -0.725231 -11.2772 4.1
      vertex 0 -11.3 5.1
      vertex -0.725231 -11.2772 5.1
    endloop
  endfacet
  facet normal -0.0314227 -0.999506 -0
    outer loop
      vertex 0 -11.3 5.1
      vertex -0.725231 -11.2772 4.1
      vertex 0 -11.3 4.1
    endloop
  endfacet
  facet normal 0.0314227 -0.999506 0
    outer loop
      vertex 0 -11.3 4.1
      vertex 0.725231 -11.2772 5.1
      vertex 0 -11.3 5.1
    endloop
  endfacet
  facet normal 0.0314227 -0.999506 0
    outer loop
      vertex 0.725231 -11.2772 5.1
      vertex 0 -11.3 4.1
      vertex 0.725231 -11.2772 4.1
    endloop
  endfacet
  facet normal 0.0941302 -0.99556 0
    outer loop
      vertex 0.725231 -11.2772 4.1
      vertex 1.4476 -11.2089 5.1
      vertex 0.725231 -11.2772 5.1
    endloop
  endfacet
  facet normal 0.0941302 -0.99556 0
    outer loop
      vertex 1.4476 -11.2089 5.1
      vertex 0.725231 -11.2772 4.1
      vertex 1.4476 -11.2089 4.1
    endloop
  endfacet
  facet normal 0.156426 -0.98769 0
    outer loop
      vertex 1.4476 -11.2089 4.1
      vertex 2.16425 -11.0954 5.1
      vertex 1.4476 -11.2089 5.1
    endloop
  endfacet
  facet normal 0.156426 -0.98769 0
    outer loop
      vertex 2.16425 -11.0954 5.1
      vertex 1.4476 -11.2089 4.1
      vertex 2.16425 -11.0954 4.1
    endloop
  endfacet
  facet normal 0.218165 -0.975912 0
    outer loop
      vertex 2.16425 -11.0954 4.1
      vertex 2.87237 -10.9371 5.1
      vertex 2.16425 -11.0954 5.1
    endloop
  endfacet
  facet normal 0.218165 -0.975912 0
    outer loop
      vertex 2.87237 -10.9371 5.1
      vertex 2.16425 -11.0954 4.1
      vertex 2.87237 -10.9371 4.1
    endloop
  endfacet
  facet normal 0.278949 -0.960306 0
    outer loop
      vertex 2.87237 -10.9371 4.1
      vertex 3.56915 -10.7347 5.1
      vertex 2.87237 -10.9371 5.1
    endloop
  endfacet
  facet normal 0.278949 -0.960306 0
    outer loop
      vertex 3.56915 -10.7347 5.1
      vertex 2.87237 -10.9371 4.1
      vertex 3.56915 -10.7347 4.1
    endloop
  endfacet
  facet normal 0.338758 -0.940874 0
    outer loop
      vertex 3.56915 -10.7347 4.1
      vertex 4.25184 -10.4889 5.1
      vertex 3.56915 -10.7347 5.1
    endloop
  endfacet
  facet normal 0.338758 -0.940874 0
    outer loop
      vertex 4.25184 -10.4889 5.1
      vertex 3.56915 -10.7347 4.1
      vertex 4.25184 -10.4889 4.1
    endloop
  endfacet
  facet normal 0.397072 -0.917787 0
    outer loop
      vertex 4.25184 -10.4889 4.1
      vertex 4.91775 -10.2008 5.1
      vertex 4.25184 -10.4889 5.1
    endloop
  endfacet
  facet normal 0.397072 -0.917787 0
    outer loop
      vertex 4.91775 -10.2008 5.1
      vertex 4.25184 -10.4889 4.1
      vertex 4.91775 -10.2008 4.1
    endloop
  endfacet
  facet normal 0.454047 -0.890978 0
    outer loop
      vertex 4.91775 -10.2008 4.1
      vertex 5.56425 -9.87134 5.1
      vertex 4.91775 -10.2008 5.1
    endloop
  endfacet
  facet normal 0.454047 -0.890978 0
    outer loop
      vertex 5.56425 -9.87134 5.1
      vertex 4.91775 -10.2008 4.1
      vertex 5.56425 -9.87134 4.1
    endloop
  endfacet
  facet normal 0.509033 -0.860747 0
    outer loop
      vertex 5.56425 -9.87134 4.1
      vertex 6.1888 -9.50199 5.1
      vertex 5.56425 -9.87134 5.1
    endloop
  endfacet
  facet normal 0.509033 -0.860747 0
    outer loop
      vertex 6.1888 -9.50199 5.1
      vertex 5.56425 -9.87134 4.1
      vertex 6.1888 -9.50199 4.1
    endloop
  endfacet
  facet normal 0.562082 -0.827081 0
    outer loop
      vertex 6.1888 -9.50199 4.1
      vertex 6.78892 -9.09415 5.1
      vertex 6.1888 -9.50199 5.1
    endloop
  endfacet
  facet normal 0.562082 -0.827081 0
    outer loop
      vertex 6.78892 -9.09415 5.1
      vertex 6.1888 -9.50199 4.1
      vertex 6.78892 -9.09415 4.1
    endloop
  endfacet
  facet normal 0.612907 -0.790155 0
    outer loop
      vertex 6.78892 -9.09415 4.1
      vertex 7.36225 -8.64943 5.1
      vertex 6.78892 -9.09415 5.1
    endloop
  endfacet
  facet normal 0.612907 -0.790155 0
    outer loop
      vertex 7.36225 -8.64943 5.1
      vertex 6.78892 -9.09415 4.1
      vertex 7.36225 -8.64943 4.1
    endloop
  endfacet
  facet normal 0.661313 -0.75011 0
    outer loop
      vertex 7.36225 -8.64943 4.1
      vertex 7.90652 -8.16959 5.1
      vertex 7.36225 -8.64943 5.1
    endloop
  endfacet
  facet normal 0.661313 -0.75011 0
    outer loop
      vertex 7.90652 -8.16959 5.1
      vertex 7.36225 -8.64943 4.1
      vertex 7.90652 -8.16959 4.1
    endloop
  endfacet
  facet normal 0.707107 -0.707107 0
    outer loop
      vertex 7.90652 -8.16959 5.1
      vertex 8.41959 -7.65652 4.1
      vertex 8.41959 -7.65652 5.1
    endloop
  endfacet
  facet normal 0.707107 -0.707107 0
    outer loop
      vertex 8.41959 -7.65652 4.1
      vertex 7.90652 -8.16959 5.1
      vertex 7.90652 -8.16959 4.1
    endloop
  endfacet
  facet normal 0.75011 -0.661313 0
    outer loop
      vertex 8.41959 -7.65652 5.1
      vertex 8.89943 -7.11225 4.1
      vertex 8.89943 -7.11225 5.1
    endloop
  endfacet
  facet normal 0.75011 -0.661313 0
    outer loop
      vertex 8.89943 -7.11225 4.1
      vertex 8.41959 -7.65652 5.1
      vertex 8.41959 -7.65652 4.1
    endloop
  endfacet
  facet normal 0.790155 -0.612907 0
    outer loop
      vertex 8.89943 -7.11225 5.1
      vertex 9.34415 -6.53892 4.1
      vertex 9.34415 -6.53892 5.1
    endloop
  endfacet
  facet normal 0.790155 -0.612907 0
    outer loop
      vertex 9.34415 -6.53892 4.1
      vertex 8.89943 -7.11225 5.1
      vertex 8.89943 -7.11225 4.1
    endloop
  endfacet
  facet normal 0.827081 -0.562082 0
    outer loop
      vertex 9.34415 -6.53892 5.1
      vertex 9.75199 -5.9388 4.1
      vertex 9.75199 -5.9388 5.1
    endloop
  endfacet
  facet normal 0.827081 -0.562082 0
    outer loop
      vertex 9.75199 -5.9388 4.1
      vertex 9.34415 -6.53892 5.1
      vertex 9.34415 -6.53892 4.1
    endloop
  endfacet
  facet normal 0.860771 -0.508993 0
    outer loop
      vertex 9.75199 -5.9388 5.1
      vertex 10.1213 -5.31425 4.1
      vertex 10.1213 -5.31425 5.1
    endloop
  endfacet
  facet normal 0.860771 -0.508993 0
    outer loop
      vertex 10.1213 -5.31425 4.1
      vertex 9.75199 -5.9388 5.1
      vertex 9.75199 -5.9388 4.1
    endloop
  endfacet
  facet normal 0.890955 -0.454091 0
    outer loop
      vertex 10.1213 -5.31425 5.1
      vertex 10.4508 -4.66775 4.1
      vertex 10.4508 -4.66775 5.1
    endloop
  endfacet
  facet normal 0.890955 -0.454091 0
    outer loop
      vertex 10.4508 -4.66775 4.1
      vertex 10.1213 -5.31425 5.1
      vertex 10.1213 -5.31425 4.1
    endloop
  endfacet
  facet normal 0.917787 -0.397072 0
    outer loop
      vertex 10.4508 -4.66775 5.1
      vertex 10.7389 -4.00184 4.1
      vertex 10.7389 -4.00184 5.1
    endloop
  endfacet
  facet normal 0.917787 -0.397072 0
    outer loop
      vertex 10.7389 -4.00184 4.1
      vertex 10.4508 -4.66775 5.1
      vertex 10.4508 -4.66775 4.1
    endloop
  endfacet
  facet normal 0.940874 -0.338758 0
    outer loop
      vertex 10.7389 -4.00184 5.1
      vertex 10.9847 -3.31915 4.1
      vertex 10.9847 -3.31915 5.1
    endloop
  endfacet
  facet normal 0.940874 -0.338758 0
    outer loop
      vertex 10.9847 -3.31915 4.1
      vertex 10.7389 -4.00184 5.1
      vertex 10.7389 -4.00184 4.1
    endloop
  endfacet
  facet normal 0.960306 -0.278949 0
    outer loop
      vertex 10.9847 -3.31915 5.1
      vertex 11.1871 -2.62237 4.1
      vertex 11.1871 -2.62237 5.1
    endloop
  endfacet
  facet normal 0.960306 -0.278949 0
    outer loop
      vertex 11.1871 -2.62237 4.1
      vertex 10.9847 -3.31915 5.1
      vertex 10.9847 -3.31915 4.1
    endloop
  endfacet
  facet normal 0.975912 -0.218165 0
    outer loop
      vertex 11.1871 -2.62237 5.1
      vertex 11.3454 -1.91425 4.1
      vertex 11.3454 -1.91425 5.1
    endloop
  endfacet
  facet normal 0.975912 -0.218165 0
    outer loop
      vertex 11.3454 -1.91425 4.1
      vertex 11.1871 -2.62237 5.1
      vertex 11.1871 -2.62237 4.1
    endloop
  endfacet
  facet normal 0.98769 -0.156426 0
    outer loop
      vertex 11.3454 -1.91425 5.1
      vertex 11.4589 -1.1976 4.1
      vertex 11.4589 -1.1976 5.1
    endloop
  endfacet
  facet normal 0.98769 -0.156426 0
    outer loop
      vertex 11.4589 -1.1976 4.1
      vertex 11.3454 -1.91425 5.1
      vertex 11.3454 -1.91425 4.1
    endloop
  endfacet
  facet normal 0.99556 -0.0941302 0
    outer loop
      vertex 11.4589 -1.1976 5.1
      vertex 11.5272 -0.475231 4.1
      vertex 11.5272 -0.475231 5.1
    endloop
  endfacet
  facet normal 0.99556 -0.0941302 0
    outer loop
      vertex 11.5272 -0.475231 4.1
      vertex 11.4589 -1.1976 5.1
      vertex 11.4589 -1.1976 4.1
    endloop
  endfacet
  facet normal 0.999506 -0.0314227 0
    outer loop
      vertex 11.5272 -0.475231 5.1
      vertex 11.55 0.25 4.1
      vertex 11.55 0.25 5.1
    endloop
  endfacet
  facet normal 0.999506 -0.0314227 0
    outer loop
      vertex 11.55 0.25 4.1
      vertex 11.5272 -0.475231 5.1
      vertex 11.5272 -0.475231 4.1
    endloop
  endfacet
  facet normal 0 0 -1
    outer loop
      vertex 11.5272 -0.475231 4.1
      vertex 11.5272 0.975231 4.1
      vertex 11.55 0.25 4.1
    endloop
  endfacet
  facet normal 0 0 -1
    outer loop
      vertex 11.4589 -1.1976 4.1
      vertex 11.5272 0.975231 4.1
      vertex 11.5272 -0.475231 4.1
    endloop
  endfacet
  facet normal 0 0 -1
    outer loop
      vertex 11.4589 -1.1976 4.1
      vertex 11.4589 1.6976 4.1
      vertex 11.5272 0.975231 4.1
    endloop
  endfacet
  facet normal 0 0 -1
    outer loop
      vertex 11.3454 -1.91425 4.1
      vertex 11.4589 1.6976 4.1
      vertex 11.4589 -1.1976 4.1
    endloop
  endfacet
  facet normal 0 0 -1
    outer loop
      vertex 11.3454 -1.91425 4.1
      vertex 11.3454 2.41425 4.1
      vertex 11.4589 1.6976 4.1
    endloop
  endfacet
  facet normal 0 0 -1
    outer loop
      vertex 11.1871 -2.62237 4.1
      vertex 11.3454 2.41425 4.1
      vertex 11.3454 -1.91425 4.1
    endloop
  endfacet
  facet normal 0 0 -1
    outer loop
      vertex 11.1871 -2.62237 4.1
      vertex 11.1871 3.12237 4.1
      vertex 11.3454 2.41425 4.1
    endloop
  endfacet
  facet normal 0 0 -1
    outer loop
      vertex 10.9847 -3.31915 4.1
      vertex 11.1871 3.12237 4.1
      vertex 11.1871 -2.62237 4.1
    endloop
  endfacet
  facet normal 0 0 -1
    outer loop
      vertex 10.9847 -3.31915 4.1
      vertex 10.9847 3.81915 4.1
      vertex 11.1871 3.12237 4.1
    endloop
  endfacet
  facet normal 0 0 -1
    outer loop
      vertex 10.7389 -4.00184 4.1
      vertex 10.9847 3.81915 4.1
      vertex 10.9847 -3.31915 4.1
    endloop
  endfacet
  facet normal 0 0 -1
    outer loop
      vertex 10.7389 -4.00184 4.1
      vertex 10.7389 4.50184 4.1
      vertex 10.9847 3.81915 4.1
    endloop
  endfacet
  facet normal 0 0 -1
    outer loop
      vertex 10.4508 -4.66775 4.1
      vertex 10.7389 4.50184 4.1
      vertex 10.7389 -4.00184 4.1
    endloop
  endfacet
  facet normal 0 0 -1
    outer loop
      vertex 10.4508 -4.66775 4.1
      vertex 10.4508 5.16775 4.1
      vertex 10.7389 4.50184 4.1
    endloop
  endfacet
  facet normal 0 0 -1
    outer loop
      vertex 10.1213 -5.31425 4.1
      vertex 10.4508 5.16775 4.1
      vertex 10.4508 -4.66775 4.1
    endloop
  endfacet
  facet normal 0 0 -1
    outer loop
      vertex 10.1213 -5.31425 4.1
      vertex 10.1213 5.81425 4.1
      vertex 10.4508 5.16775 4.1
    endloop
  endfacet
  facet normal 0 0 -1
    outer loop
      vertex 9.75199 -5.9388 4.1
      vertex 10.1213 5.81425 4.1
      vertex 10.1213 -5.31425 4.1
    endloop
  endfacet
  facet normal 0 0 -1
    outer loop
      vertex 9.75199 -5.9388 4.1
      vertex 9.75199 6.4388 4.1
      vertex 10.1213 5.81425 4.1
    endloop
  endfacet
  facet normal 0 0 -1
    outer loop
      vertex 9.34415 -6.53892 4.1
      vertex 9.75199 6.4388 4.1
      vertex 9.75199 -5.9388 4.1
    endloop
  endfacet
  facet normal 0 0 -1
    outer loop
      vertex 9.34415 -6.53892 4.1
      vertex 9.34415 7.03892 4.1
      vertex 9.75199 6.4388 4.1
    endloop
  endfacet
  facet normal 0 0 -1
    outer loop
      vertex 8.89943 -7.11225 4.1
      vertex 9.34415 7.03892 4.1
      vertex 9.34415 -6.53892 4.1
    endloop
  endfacet
  facet normal 0 0 -1
    outer loop
      vertex 8.89943 -7.11225 4.1
      vertex 8.89943 7.61225 4.1
      vertex 9.34415 7.03892 4.1
    endloop
  endfacet
  facet normal 0 0 -1
    outer loop
      vertex 8.41959 -7.65652 4.1
      vertex 8.89943 7.61225 4.1
      vertex 8.89943 -7.11225 4.1
    endloop
  endfacet
  facet normal 0 0 -1
    outer loop
      vertex 8.41959 -7.65652 4.1
      vertex 8.41959 8.15652 4.1
      vertex 8.89943 7.61225 4.1
    endloop
  endfacet
  facet normal 0 0 -1
    outer loop
      vertex 7.90652 -8.16959 4.1
      vertex 8.41959 8.15652 4.1
      vertex 8.41959 -7.65652 4.1
    endloop
  endfacet
  facet normal 0 0 -1
    outer loop
      vertex 7.90652 -8.16959 4.1
      vertex 7.90652 8.66959 4.1
      vertex 8.41959 8.15652 4.1
    endloop
  endfacet
  facet normal 0 0 -1
    outer loop
      vertex 7.36225 -8.64943 4.1
      vertex 7.90652 8.66959 4.1
      vertex 7.90652 -8.16959 4.1
    endloop
  endfacet
  facet normal 0 0 -1
    outer loop
      vertex 7.36225 -8.64943 4.1
      vertex 7.36225 9.14943 4.1
      vertex 7.90652 8.66959 4.1
    endloop
  endfacet
  facet normal 0 0 -1
    outer loop
      vertex 6.78892 -9.09415 4.1
      vertex 7.36225 9.14943 4.1
      vertex 7.36225 -8.64943 4.1
    endloop
  endfacet
  facet normal 0 0 -1
    outer loop
      vertex 6.78892 -9.09415 4.1
      vertex 6.78892 9.59415 4.1
      vertex 7.36225 9.14943 4.1
    endloop
  endfacet
  facet normal 0 0 -1
    outer loop
      vertex 6.1888 -9.50199 4.1
      vertex 6.78892 9.59415 4.1
      vertex 6.78892 -9.09415 4.1
    endloop
  endfacet
  facet normal 0 0 -1
    outer loop
      vertex 6.1888 -9.50199 4.1
      vertex 6.1888 10.002 4.1
      vertex 6.78892 9.59415 4.1
    endloop
  endfacet
  facet normal 0 0 -1
    outer loop
      vertex 5.56425 -9.87134 4.1
      vertex 6.1888 10.002 4.1
      vertex 6.1888 -9.50199 4.1
    endloop
  endfacet
  facet normal 0 0 -1
    outer loop
      vertex 5.56425 -9.87134 4.1
      vertex 5.56425 10.3713 4.1
      vertex 6.1888 10.002 4.1
    endloop
  endfacet
  facet normal 0 0 -1
    outer loop
      vertex 4.91775 -10.2008 4.1
      vertex 5.56425 10.3713 4.1
      vertex 5.56425 -9.87134 4.1
    endloop
  endfacet
  facet normal 0 0 -1
    outer loop
      vertex 4.91775 -10.2008 4.1
      vertex 4.91775 10.7008 4.1
      vertex 5.56425 10.3713 4.1
    endloop
  endfacet
  facet normal 0 0 -1
    outer loop
      vertex 4.25184 -10.4889 4.1
      vertex 4.91775 10.7008 4.1
      vertex 4.91775 -10.2008 4.1
    endloop
  endfacet
  facet normal 0 0 -1
    outer loop
      vertex 4.25184 -10.4889 4.1
      vertex 4.25184 10.9889 4.1
      vertex 4.91775 10.7008 4.1
    endloop
  endfacet
  facet normal 0 0 -1
    outer loop
      vertex 3.56915 -10.7347 4.1
      vertex 4.25184 10.9889 4.1
      vertex 4.25184 -10.4889 4.1
    endloop
  endfacet
  facet normal 0 0 -1
    outer loop
      vertex 3.56915 -10.7347 4.1
      vertex 3.56915 11.2347 4.1
      vertex 4.25184 10.9889 4.1
    endloop
  endfacet
  facet normal 0 0 -1
    outer loop
      vertex 2.87237 -10.9371 4.1
      vertex 3.56915 11.2347 4.1
      vertex 3.56915 -10.7347 4.1
    endloop
  endfacet
  facet normal 0 0 -1
    outer loop
      vertex 2.87237 -10.9371 4.1
      vertex 2.87237 11.4371 4.1
      vertex 3.56915 11.2347 4.1
    endloop
  endfacet
  facet normal 0 0 -1
    outer loop
      vertex 2.16425 -11.0954 4.1
      vertex 2.87237 11.4371 4.1
      vertex 2.87237 -10.9371 4.1
    endloop
  endfacet
  facet normal 0 0 -1
    outer loop
      vertex 2.16425 -11.0954 4.1
      vertex 2.16425 11.5954 4.1
      vertex 2.87237 11.4371 4.1
    endloop
  endfacet
  facet normal 0 0 -1
    outer loop
      vertex 1.4476 -11.2089 4.1
      vertex 2.16425 11.5954 4.1
      vertex 2.16425 -11.0954 4.1
    endloop
  endfacet
  facet normal 0 0 -1
    outer loop
      vertex 1.4476 -11.2089 4.1
      vertex 1.4476 11.7089 4.1
      vertex 2.16425 11.5954 4.1
    endloop
  endfacet
  facet normal 0 0 -1
    outer loop
      vertex 0.725231 -11.2772 4.1
      vertex 1.4476 11.7089 4.1
      vertex 1.4476 -11.2089 4.1
    endloop
  endfacet
  facet normal 0 0 -1
    outer loop
      vertex 0.725231 -11.2772 4.1
      vertex 0.725231 11.7772 4.1
      vertex 1.4476 11.7089 4.1
    endloop
  endfacet
  facet normal 0 0 -1
    outer loop
      vertex 0 -11.3 4.1
      vertex 0.725231 11.7772 4.1
      vertex 0.725231 -11.2772 4.1
    endloop
  endfacet
  facet normal 0 0 -1
    outer loop
      vertex 0 -11.3 4.1
      vertex 0 11.8 4.1
      vertex 0.725231 11.7772 4.1
    endloop
  endfacet
  facet normal 0 0 -1
    outer loop
      vertex -0.725231 -11.2772 4.1
      vertex 0 11.8 4.1
      vertex 0 -11.3 4.1
    endloop
  endfacet
  facet normal 0 0 -1
    outer loop
      vertex -0.725231 -11.2772 4.1
      vertex -0.725231 11.7772 4.1
      vertex 0 11.8 4.1
    endloop
  endfacet
  facet normal 0 0 -1
    outer loop
      vertex -1.4476 -11.2089 4.1
      vertex -0.725231 11.7772 4.1
      vertex -0.725231 -11.2772 4.1
    endloop
  endfacet
  facet normal 0 0 -1
    outer loop
      vertex -1.4476 -11.2089 4.1
      vertex -1.4476 11.7089 4.1
      vertex -0.725231 11.7772 4.1
    endloop
  endfacet
  facet normal 0 0 -1
    outer loop
      vertex -2.16425 -11.0954 4.1
      vertex -1.4476 11.7089 4.1
      vertex -1.4476 -11.2089 4.1
    endloop
  endfacet
  facet normal 0 0 -1
    outer loop
      vertex -2.16425 -11.0954 4.1
      vertex -2.16425 11.5954 4.1
      vertex -1.4476 11.7089 4.1
    endloop
  endfacet
  facet normal 0 0 -1
    outer loop
      vertex -2.87237 -10.9371 4.1
      vertex -2.16425 11.5954 4.1
      vertex -2.16425 -11.0954 4.1
    endloop
  endfacet
  facet normal 0 0 -1
    outer loop
      vertex -2.87237 -10.9371 4.1
      vertex -2.87237 11.4371 4.1
      vertex -2.16425 11.5954 4.1
    endloop
  endfacet
  facet normal 0 0 -1
    outer loop
      vertex -3.56915 -10.7347 4.1
      vertex -2.87237 11.4371 4.1
      vertex -2.87237 -10.9371 4.1
    endloop
  endfacet
  facet normal 0 0 -1
    outer loop
      vertex -3.56915 -10.7347 4.1
      vertex -3.56915 11.2347 4.1
      vertex -2.87237 11.4371 4.1
    endloop
  endfacet
  facet normal 0 0 -1
    outer loop
      vertex -4.25184 -10.4889 4.1
      vertex -3.56915 11.2347 4.1
      vertex -3.56915 -10.7347 4.1
    endloop
  endfacet
  facet normal 0 0 -1
    outer loop
      vertex -4.25184 -10.4889 4.1
      vertex -4.25184 10.9889 4.1
      vertex -3.56915 11.2347 4.1
    endloop
  endfacet
  facet normal 0 0 -1
    outer loop
      vertex -4.91775 -10.2008 4.1
      vertex -4.25184 10.9889 4.1
      vertex -4.25184 -10.4889 4.1
    endloop
  endfacet
  facet normal 0 0 -1
    outer loop
      vertex -4.91775 -10.2008 4.1
      vertex -4.91775 10.7008 4.1
      vertex -4.25184 10.9889 4.1
    endloop
  endfacet
  facet normal 0 0 -1
    outer loop
      vertex -5.56425 -9.87134 4.1
      vertex -4.91775 10.7008 4.1
      vertex -4.91775 -10.2008 4.1
    endloop
  endfacet
  facet normal 0 0 -1
    outer loop
      vertex -5.56425 -9.87134 4.1
      vertex -5.56425 10.3713 4.1
      vertex -4.91775 10.7008 4.1
    endloop
  endfacet
  facet normal 0 0 -1
    outer loop
      vertex -6.1888 -9.50199 4.1
      vertex -5.56425 10.3713 4.1
      vertex -5.56425 -9.87134 4.1
    endloop
  endfacet
  facet normal 0 0 -1
    outer loop
      vertex -6.1888 -9.50199 4.1
      vertex -6.1888 10.002 4.1
      vertex -5.56425 10.3713 4.1
    endloop
  endfacet
  facet normal 0 0 -1
    outer loop
      vertex -6.78892 -9.09415 4.1
      vertex -6.1888 10.002 4.1
      vertex -6.1888 -9.50199 4.1
    endloop
  endfacet
  facet normal 0 0 -1
    outer loop
      vertex -6.78892 -9.09415 4.1
      vertex -6.78892 9.59415 4.1
      vertex -6.1888 10.002 4.1
    endloop
  endfacet
  facet normal 0 0 -1
    outer loop
      vertex -7.36225 -8.64943 4.1
      vertex -6.78892 9.59415 4.1
      vertex -6.78892 -9.09415 4.1
    endloop
  endfacet
  facet normal 0 0 -1
    outer loop
      vertex -7.36225 -8.64943 4.1
      vertex -7.36225 9.14943 4.1
      vertex -6.78892 9.59415 4.1
    endloop
  endfacet
  facet normal 0 0 -1
    outer loop
      vertex -7.90652 -8.16959 4.1
      vertex -7.36225 9.14943 4.1
      vertex -7.36225 -8.64943 4.1
    endloop
  endfacet
  facet normal 0 0 -1
    outer loop
      vertex -7.90652 -8.16959 4.1
      vertex -7.90652 8.66959 4.1
      vertex -7.36225 9.14943 4.1
    endloop
  endfacet
  facet normal 0 0 -1
    outer loop
      vertex -8.41959 -7.65652 4.1
      vertex -7.90652 8.66959 4.1
      vertex -7.90652 -8.16959 4.1
    endloop
  endfacet
  facet normal 0 0 -1
    outer loop
      vertex -8.41959 -7.65652 4.1
      vertex -8.41959 8.15652 4.1
      vertex -7.90652 8.66959 4.1
    endloop
  endfacet
  facet normal 0 0 -1
    outer loop
      vertex -8.89943 -7.11225 4.1
      vertex -8.41959 8.15652 4.1
      vertex -8.41959 -7.65652 4.1
    endloop
  endfacet
  facet normal 0 0 -1
    outer loop
      vertex -8.89943 -7.11225 4.1
      vertex -8.89943 7.61225 4.1
      vertex -8.41959 8.15652 4.1
    endloop
  endfacet
  facet normal 0 0 -1
    outer loop
      vertex -9.34415 -6.53892 4.1
      vertex -8.89943 7.61225 4.1
      vertex -8.89943 -7.11225 4.1
    endloop
  endfacet
  facet normal 0 0 -1
    outer loop
      vertex -9.34415 -6.53892 4.1
      vertex -9.34415 7.03892 4.1
      vertex -8.89943 7.61225 4.1
    endloop
  endfacet
  facet normal 0 0 -1
    outer loop
      vertex -9.75199 -5.9388 4.1
      vertex -9.34415 7.03892 4.1
      vertex -9.34415 -6.53892 4.1
    endloop
  endfacet
  facet normal 0 0 -1
    outer loop
      vertex -9.75199 -5.9388 4.1
      vertex -9.75199 6.4388 4.1
      vertex -9.34415 7.03892 4.1
    endloop
  endfacet
  facet normal 0 0 -1
    outer loop
      vertex -10.1213 -5.31425 4.1
      vertex -9.75199 6.4388 4.1
      vertex -9.75199 -5.9388 4.1
    endloop
  endfacet
  facet normal 0 0 -1
    outer loop
      vertex -10.1213 -5.31425 4.1
      vertex -10.1213 5.81425 4.1
      vertex -9.75199 6.4388 4.1
    endloop
  endfacet
  facet normal 0 0 -1
    outer loop
      vertex -10.4508 -4.66775 4.1
      vertex -10.1213 5.81425 4.1
      vertex -10.1213 -5.31425 4.1
    endloop
  endfacet
  facet normal 0 0 -1
    outer loop
      vertex -10.4508 -4.66775 4.1
      vertex -10.4508 5.16775 4.1
      vertex -10.1213 5.81425 4.1
    endloop
  endfacet
  facet normal 0 0 -1
    outer loop
      vertex -10.7389 -4.00184 4.1
      vertex -10.4508 5.16775 4.1
      vertex -10.4508 -4.66775 4.1
    endloop
  endfacet
  facet normal 0 0 -1
    outer loop
      vertex -10.7389 -4.00184 4.1
      vertex -10.7389 4.50184 4.1
      vertex -10.4508 5.16775 4.1
    endloop
  endfacet
  facet normal 0 0 -1
    outer loop
      vertex -10.9847 -3.31915 4.1
      vertex -10.7389 4.50184 4.1
      vertex -10.7389 -4.00184 4.1
    endloop
  endfacet
  facet normal 0 0 -1
    outer loop
      vertex -10.9847 -3.31915 4.1
      vertex -10.9847 3.81915 4.1
      vertex -10.7389 4.50184 4.1
    endloop
  endfacet
  facet normal 0 0 -1
    outer loop
      vertex -11.1871 -2.62237 4.1
      vertex -10.9847 3.81915 4.1
      vertex -10.9847 -3.31915 4.1
    endloop
  endfacet
  facet normal 0 0 -1
    outer loop
      vertex -11.1871 -2.62237 4.1
      vertex -11.1871 3.12237 4.1
      vertex -10.9847 3.81915 4.1
    endloop
  endfacet
  facet normal 0 0 -1
    outer loop
      vertex -11.3454 -1.91425 4.1
      vertex -11.1871 3.12237 4.1
      vertex -11.1871 -2.62237 4.1
    endloop
  endfacet
  facet normal 0 0 -1
    outer loop
      vertex -11.3454 -1.91425 4.1
      vertex -11.3454 2.41425 4.1
      vertex -11.1871 3.12237 4.1
    endloop
  endfacet
  facet normal 0 0 -1
    outer loop
      vertex -11.4589 -1.1976 4.1
      vertex -11.3454 2.41425 4.1
      vertex -11.3454 -1.91425 4.1
    endloop
  endfacet
  facet normal 0 0 -1
    outer loop
      vertex -11.4589 -1.1976 4.1
      vertex -11.4589 1.6976 4.1
      vertex -11.3454 2.41425 4.1
    endloop
  endfacet
  facet normal 0 0 -1
    outer loop
      vertex -11.5272 -0.475231 4.1
      vertex -11.4589 1.6976 4.1
      vertex -11.4589 -1.1976 4.1
    endloop
  endfacet
  facet normal 0 0 -1
    outer loop
      vertex -11.5272 -0.475231 4.1
      vertex -11.5272 0.975231 4.1
      vertex -11.4589 1.6976 4.1
    endloop
  endfacet
  facet normal 0 -0 -1
    outer loop
      vertex -11.5272 0.975231 4.1
      vertex -11.5272 -0.475231 4.1
      vertex -11.55 0.25 4.1
    endloop
  endfacet
  facet normal 0 0 1
    outer loop
      vertex 11.5272 0.975231 5.1
      vertex 11.5272 -0.475231 5.1
      vertex 11.55 0.25 5.1
    endloop
  endfacet
  facet normal 0 0 1
    outer loop
      vertex 11.4589 1.6976 5.1
      vertex 11.5272 -0.475231 5.1
      vertex 11.5272 0.975231 5.1
    endloop
  endfacet
  facet normal 0 0 1
    outer loop
      vertex 11.4589 1.6976 5.1
      vertex 11.4589 -1.1976 5.1
      vertex 11.5272 -0.475231 5.1
    endloop
  endfacet
  facet normal 0 0 1
    outer loop
      vertex 11.3454 2.41425 5.1
      vertex 11.4589 -1.1976 5.1
      vertex 11.4589 1.6976 5.1
    endloop
  endfacet
  facet normal 0 0 1
    outer loop
      vertex 11.3454 2.41425 5.1
      vertex 11.3454 -1.91425 5.1
      vertex 11.4589 -1.1976 5.1
    endloop
  endfacet
  facet normal 0 0 1
    outer loop
      vertex 11.1871 3.12237 5.1
      vertex 11.3454 -1.91425 5.1
      vertex 11.3454 2.41425 5.1
    endloop
  endfacet
  facet normal 0 0 1
    outer loop
      vertex 11.1871 3.12237 5.1
      vertex 11.1871 -2.62237 5.1
      vertex 11.3454 -1.91425 5.1
    endloop
  endfacet
  facet normal 0 0 1
    outer loop
      vertex 10.9847 3.81915 5.1
      vertex 11.1871 -2.62237 5.1
      vertex 11.1871 3.12237 5.1
    endloop
  endfacet
  facet normal 0 0 1
    outer loop
      vertex 10.9847 3.81915 5.1
      vertex 10.9847 -3.31915 5.1
      vertex 11.1871 -2.62237 5.1
    endloop
  endfacet
  facet normal 0 0 1
    outer loop
      vertex 10.7389 4.50184 5.1
      vertex 10.9847 -3.31915 5.1
      vertex 10.9847 3.81915 5.1
    endloop
  endfacet
  facet normal 0 0 1
    outer loop
      vertex 10.7389 4.50184 5.1
      vertex 10.7389 -4.00184 5.1
      vertex 10.9847 -3.31915 5.1
    endloop
  endfacet
  facet normal 0 0 1
    outer loop
      vertex 10.4508 5.16775 5.1
      vertex 10.7389 -4.00184 5.1
      vertex 10.7389 4.50184 5.1
    endloop
  endfacet
  facet normal 0 0 1
    outer loop
      vertex 10.4508 5.16775 5.1
      vertex 10.4508 -4.66775 5.1
      vertex 10.7389 -4.00184 5.1
    endloop
  endfacet
  facet normal 0 0 1
    outer loop
      vertex 10.1213 5.81425 5.1
      vertex 10.4508 -4.66775 5.1
      vertex 10.4508 5.16775 5.1
    endloop
  endfacet
  facet normal 0 0 1
    outer loop
      vertex 10.1213 5.81425 5.1
      vertex 10.1213 -5.31425 5.1
      vertex 10.4508 -4.66775 5.1
    endloop
  endfacet
  facet normal 0 0 1
    outer loop
      vertex 9.75199 6.4388 5.1
      vertex 10.1213 -5.31425 5.1
      vertex 10.1213 5.81425 5.1
    endloop
  endfacet
  facet normal 0 0 1
    outer loop
      vertex 9.75199 6.4388 5.1
      vertex 9.75199 -5.9388 5.1
      vertex 10.1213 -5.31425 5.1
    endloop
  endfacet
  facet normal 0 0 1
    outer loop
      vertex 9.34415 7.03892 5.1
      vertex 9.75199 -5.9388 5.1
      vertex 9.75199 6.4388 5.1
    endloop
  endfacet
  facet normal 0 0 1
    outer loop
      vertex 9.34415 7.03892 5.1
      vertex 9.34415 -6.53892 5.1
      vertex 9.75199 -5.9388 5.1
    endloop
  endfacet
  facet normal 0 0 1
    outer loop
      vertex 8.89943 7.61225 5.1
      vertex 9.34415 -6.53892 5.1
      vertex 9.34415 7.03892 5.1
    endloop
  endfacet
  facet normal 0 0 1
    outer loop
      vertex 8.89943 7.61225 5.1
      vertex 8.89943 -7.11225 5.1
      vertex 9.34415 -6.53892 5.1
    endloop
  endfacet
  facet normal 0 0 1
    outer loop
      vertex 8.41959 8.15652 5.1
      vertex 8.89943 -7.11225 5.1
      vertex 8.89943 7.61225 5.1
    endloop
  endfacet
  facet normal 0 0 1
    outer loop
      vertex 8.41959 8.15652 5.1
      vertex 8.41959 -7.65652 5.1
      vertex 8.89943 -7.11225 5.1
    endloop
  endfacet
  facet normal 0 0 1
    outer loop
      vertex 7.90652 8.66959 5.1
      vertex 8.41959 -7.65652 5.1
      vertex 8.41959 8.15652 5.1
    endloop
  endfacet
  facet normal 0 0 1
    outer loop
      vertex 7.90652 8.66959 5.1
      vertex 7.90652 -8.16959 5.1
      vertex 8.41959 -7.65652 5.1
    endloop
  endfacet
  facet normal 0 0 1
    outer loop
      vertex 7.36225 9.14943 5.1
      vertex 7.90652 -8.16959 5.1
      vertex 7.90652 8.66959 5.1
    endloop
  endfacet
  facet normal 0 0 1
    outer loop
      vertex 7.36225 9.14943 5.1
      vertex 7.36225 -8.64943 5.1
      vertex 7.90652 -8.16959 5.1
    endloop
  endfacet
  facet normal 0 0 1
    outer loop
      vertex 6.78892 9.59415 5.1
      vertex 7.36225 -8.64943 5.1
      vertex 7.36225 9.14943 5.1
    endloop
  endfacet
  facet normal 0 0 1
    outer loop
      vertex 6.78892 9.59415 5.1
      vertex 6.78892 -9.09415 5.1
      vertex 7.36225 -8.64943 5.1
    endloop
  endfacet
  facet normal 0 0 1
    outer loop
      vertex 6.1888 10.002 5.1
      vertex 6.78892 -9.09415 5.1
      vertex 6.78892 9.59415 5.1
    endloop
  endfacet
  facet normal 0 0 1
    outer loop
      vertex 6.1888 10.002 5.1
      vertex 6.1888 -9.50199 5.1
      vertex 6.78892 -9.09415 5.1
    endloop
  endfacet
  facet normal 0 0 1
    outer loop
      vertex 5.56425 10.3713 5.1
      vertex 6.1888 -9.50199 5.1
      vertex 6.1888 10.002 5.1
    endloop
  endfacet
  facet normal 0 0 1
    outer loop
      vertex 5.56425 10.3713 5.1
      vertex 5.56425 -9.87134 5.1
      vertex 6.1888 -9.50199 5.1
    endloop
  endfacet
  facet normal 0 0 1
    outer loop
      vertex 4.91775 10.7008 5.1
      vertex 5.56425 -9.87134 5.1
      vertex 5.56425 10.3713 5.1
    endloop
  endfacet
  facet normal 0 0 1
    outer loop
      vertex 4.91775 10.7008 5.1
      vertex 4.91775 -10.2008 5.1
      vertex 5.56425 -9.87134 5.1
    endloop
  endfacet
  facet normal 0 0 1
    outer loop
      vertex 4.25184 10.9889 5.1
      vertex 4.91775 -10.2008 5.1
      vertex 4.91775 10.7008 5.1
    endloop
  endfacet
  facet normal 0 0 1
    outer loop
      vertex 4.25184 10.9889 5.1
      vertex 4.25184 -10.4889 5.1
      vertex 4.91775 -10.2008 5.1
    endloop
  endfacet
  facet normal 0 0 1
    outer loop
      vertex 3.56915 11.2347 5.1
      vertex 4.25184 -10.4889 5.1
      vertex 4.25184 10.9889 5.1
    endloop
  endfacet
  facet normal 0 0 1
    outer loop
      vertex 3.56915 11.2347 5.1
      vertex 3.56915 -10.7347 5.1
      vertex 4.25184 -10.4889 5.1
    endloop
  endfacet
  facet normal 0 0 1
    outer loop
      vertex 2.87237 11.4371 5.1
      vertex 3.56915 -10.7347 5.1
      vertex 3.56915 11.2347 5.1
    endloop
  endfacet
  facet normal 0 0 1
    outer loop
      vertex 2.87237 11.4371 5.1
      vertex 2.87237 -10.9371 5.1
      vertex 3.56915 -10.7347 5.1
    endloop
  endfacet
  facet normal 0 0 1
    outer loop
      vertex 2.16425 11.5954 5.1
      vertex 2.87237 -10.9371 5.1
      vertex 2.87237 11.4371 5.1
    endloop
  endfacet
  facet normal 0 0 1
    outer loop
      vertex 2.16425 11.5954 5.1
      vertex 2.16425 -11.0954 5.1
      vertex 2.87237 -10.9371 5.1
    endloop
  endfacet
  facet normal 0 0 1
    outer loop
      vertex 1.4476 11.7089 5.1
      vertex 2.16425 -11.0954 5.1
      vertex 2.16425 11.5954 5.1
    endloop
  endfacet
  facet normal 0 0 1
    outer loop
      vertex 1.4476 11.7089 5.1
      vertex 1.4476 -11.2089 5.1
      vertex 2.16425 -11.0954 5.1
    endloop
  endfacet
  facet normal 0 0 1
    outer loop
      vertex 0.725231 11.7772 5.1
      vertex 1.4476 -11.2089 5.1
      vertex 1.4476 11.7089 5.1
    endloop
  endfacet
  facet normal 0 0 1
    outer loop
      vertex 0.725231 11.7772 5.1
      vertex 0.725231 -11.2772 5.1
      vertex 1.4476 -11.2089 5.1
    endloop
  endfacet
  facet normal 0 0 1
    outer loop
      vertex 0 11.8 5.1
      vertex 0.725231 -11.2772 5.1
      vertex 0.725231 11.7772 5.1
    endloop
  endfacet
  facet normal 0 0 1
    outer loop
      vertex 0 11.8 5.1
      vertex 0 -11.3 5.1
      vertex 0.725231 -11.2772 5.1
    endloop
  endfacet
  facet normal -0 0 1
    outer loop
      vertex -0.725231 11.7772 5.1
      vertex 0 -11.3 5.1
      vertex 0 11.8 5.1
    endloop
  endfacet
  facet normal 0 0 1
    outer loop
      vertex -0.725231 11.7772 5.1
      vertex -0.725231 -11.2772 5.1
      vertex 0 -11.3 5.1
    endloop
  endfacet
  facet normal -0 0 1
    outer loop
      vertex -1.4476 11.7089 5.1
      vertex -0.725231 -11.2772 5.1
      vertex -0.725231 11.7772 5.1
    endloop
  endfacet
  facet normal 0 0 1
    outer loop
      vertex -1.4476 11.7089 5.1
      vertex -1.4476 -11.2089 5.1
      vertex -0.725231 -11.2772 5.1
    endloop
  endfacet
  facet normal -0 0 1
    outer loop
      vertex -2.16425 11.5954 5.1
      vertex -1.4476 -11.2089 5.1
      vertex -1.4476 11.7089 5.1
    endloop
  endfacet
  facet normal 0 0 1
    outer loop
      vertex -2.16425 11.5954 5.1
      vertex -2.16425 -11.0954 5.1
      vertex -1.4476 -11.2089 5.1
    endloop
  endfacet
  facet normal -0 0 1
    outer loop
      vertex -2.87237 11.4371 5.1
      vertex -2.16425 -11.0954 5.1
      vertex -2.16425 11.5954 5.1
    endloop
  endfacet
  facet normal 0 0 1
    outer loop
      vertex -2.87237 11.4371 5.1
      vertex -2.87237 -10.9371 5.1
      vertex -2.16425 -11.0954 5.1
    endloop
  endfacet
  facet normal -0 0 1
    outer loop
      vertex -3.56915 11.2347 5.1
      vertex -2.87237 -10.9371 5.1
      vertex -2.87237 11.4371 5.1
    endloop
  endfacet
  facet normal 0 0 1
    outer loop
      vertex -3.56915 11.2347 5.1
      vertex -3.56915 -10.7347 5.1
      vertex -2.87237 -10.9371 5.1
    endloop
  endfacet
  facet normal -0 0 1
    outer loop
      vertex -4.25184 10.9889 5.1
      vertex -3.56915 -10.7347 5.1
      vertex -3.56915 11.2347 5.1
    endloop
  endfacet
  facet normal 0 0 1
    outer loop
      vertex -4.25184 10.9889 5.1
      vertex -4.25184 -10.4889 5.1
      vertex -3.56915 -10.7347 5.1
    endloop
  endfacet
  facet normal -0 0 1
    outer loop
      vertex -4.91775 10.7008 5.1
      vertex -4.25184 -10.4889 5.1
      vertex -4.25184 10.9889 5.1
    endloop
  endfacet
  facet normal 0 0 1
    outer loop
      vertex -4.91775 10.7008 5.1
      vertex -4.91775 -10.2008 5.1
      vertex -4.25184 -10.4889 5.1
    endloop
  endfacet
  facet normal -0 0 1
    outer loop
      vertex -5.56425 10.3713 5.1
      vertex -4.91775 -10.2008 5.1
      vertex -4.91775 10.7008 5.1
    endloop
  endfacet
  facet normal 0 0 1
    outer loop
      vertex -5.56425 10.3713 5.1
      vertex -5.56425 -9.87134 5.1
      vertex -4.91775 -10.2008 5.1
    endloop
  endfacet
  facet normal -0 0 1
    outer loop
      vertex -6.1888 10.002 5.1
      vertex -5.56425 -9.87134 5.1
      vertex -5.56425 10.3713 5.1
    endloop
  endfacet
  facet normal 0 0 1
    outer loop
      vertex -6.1888 10.002 5.1
      vertex -6.1888 -9.50199 5.1
      vertex -5.56425 -9.87134 5.1
    endloop
  endfacet
  facet normal -0 0 1
    outer loop
      vertex -6.78892 9.59415 5.1
      vertex -6.1888 -9.50199 5.1
      vertex -6.1888 10.002 5.1
    endloop
  endfacet
  facet normal 0 0 1
    outer loop
      vertex -6.78892 9.59415 5.1
      vertex -6.78892 -9.09415 5.1
      vertex -6.1888 -9.50199 5.1
    endloop
  endfacet
  facet normal -0 0 1
    outer loop
      vertex -7.36225 9.14943 5.1
      vertex -6.78892 -9.09415 5.1
      vertex -6.78892 9.59415 5.1
    endloop
  endfacet
  facet normal 0 0 1
    outer loop
      vertex -7.36225 9.14943 5.1
      vertex -7.36225 -8.64943 5.1
      vertex -6.78892 -9.09415 5.1
    endloop
  endfacet
  facet normal -0 0 1
    outer loop
      vertex -7.90652 8.66959 5.1
      vertex -7.36225 -8.64943 5.1
      vertex -7.36225 9.14943 5.1
    endloop
  endfacet
  facet normal 0 0 1
    outer loop
      vertex -7.90652 8.66959 5.1
      vertex -7.90652 -8.16959 5.1
      vertex -7.36225 -8.64943 5.1
    endloop
  endfacet
  facet normal -0 0 1
    outer loop
      vertex -8.41959 8.15652 5.1
      vertex -7.90652 -8.16959 5.1
      vertex -7.90652 8.66959 5.1
    endloop
  endfacet
  facet normal 0 0 1
    outer loop
      vertex -8.41959 8.15652 5.1
      vertex -8.41959 -7.65652 5.1
      vertex -7.90652 -8.16959 5.1
    endloop
  endfacet
  facet normal -0 0 1
    outer loop
      vertex -8.89943 7.61225 5.1
      vertex -8.41959 -7.65652 5.1
      vertex -8.41959 8.15652 5.1
    endloop
  endfacet
  facet normal 0 0 1
    outer loop
      vertex -8.89943 7.61225 5.1
      vertex -8.89943 -7.11225 5.1
      vertex -8.41959 -7.65652 5.1
    endloop
  endfacet
  facet normal -0 0 1
    outer loop
      vertex -9.34415 7.03892 5.1
      vertex -8.89943 -7.11225 5.1
      vertex -8.89943 7.61225 5.1
    endloop
  endfacet
  facet normal 0 0 1
    outer loop
      vertex -9.34415 7.03892 5.1
      vertex -9.34415 -6.53892 5.1
      vertex -8.89943 -7.11225 5.1
    endloop
  endfacet
  facet normal -0 0 1
    outer loop
      vertex -9.75199 6.4388 5.1
      vertex -9.34415 -6.53892 5.1
      vertex -9.34415 7.03892 5.1
    endloop
  endfacet
  facet normal 0 0 1
    outer loop
      vertex -9.75199 6.4388 5.1
      vertex -9.75199 -5.9388 5.1
      vertex -9.34415 -6.53892 5.1
    endloop
  endfacet
  facet normal -0 0 1
    outer loop
      vertex -10.1213 5.81425 5.1
      vertex -9.75199 -5.9388 5.1
      vertex -9.75199 6.4388 5.1
    endloop
  endfacet
  facet normal 0 0 1
    outer loop
      vertex -10.1213 5.81425 5.1
      vertex -10.1213 -5.31425 5.1
      vertex -9.75199 -5.9388 5.1
    endloop
  endfacet
  facet normal -0 0 1
    outer loop
      vertex -10.4508 5.16775 5.1
      vertex -10.1213 -5.31425 5.1
      vertex -10.1213 5.81425 5.1
    endloop
  endfacet
  facet normal 0 0 1
    outer loop
      vertex -10.4508 5.16775 5.1
      vertex -10.4508 -4.66775 5.1
      vertex -10.1213 -5.31425 5.1
    endloop
  endfacet
  facet normal -0 0 1
    outer loop
      vertex -10.7389 4.50184 5.1
      vertex -10.4508 -4.66775 5.1
      vertex -10.4508 5.16775 5.1
    endloop
  endfacet
  facet normal 0 0 1
    outer loop
      vertex -10.7389 4.50184 5.1
      vertex -10.7389 -4.00184 5.1
      vertex -10.4508 -4.66775 5.1
    endloop
  endfacet
  facet normal -0 0 1
    outer loop
      vertex -10.9847 3.81915 5.1
      vertex -10.7389 -4.00184 5.1
      vertex -10.7389 4.50184 5.1
    endloop
  endfacet
  facet normal 0 0 1
    outer loop
      vertex -10.9847 3.81915 5.1
      vertex -10.9847 -3.31915 5.1
      vertex -10.7389 -4.00184 5.1
    endloop
  endfacet
  facet normal -0 0 1
    outer loop
      vertex -11.1871 3.12237 5.1
      vertex -10.9847 -3.31915 5.1
      vertex -10.9847 3.81915 5.1
    endloop
  endfacet
  facet normal 0 0 1
    outer loop
      vertex -11.1871 3.12237 5.1
      vertex -11.1871 -2.62237 5.1
      vertex -10.9847 -3.31915 5.1
    endloop
  endfacet
  facet normal -0 0 1
    outer loop
      vertex -11.3454 2.41425 5.1
      vertex -11.1871 -2.62237 5.1
      vertex -11.1871 3.12237 5.1
    endloop
  endfacet
  facet normal 0 0 1
    outer loop
      vertex -11.3454 2.41425 5.1
      vertex -11.3454 -1.91425 5.1
      vertex -11.1871 -2.62237 5.1
    endloop
  endfacet
  facet normal -0 0 1
    outer loop
      vertex -11.4589 1.6976 5.1
      vertex -11.3454 -1.91425 5.1
      vertex -11.3454 2.41425 5.1
    endloop
  endfacet
  facet normal 0 0 1
    outer loop
      vertex -11.4589 1.6976 5.1
      vertex -11.4589 -1.1976 5.1
      vertex -11.3454 -1.91425 5.1
    endloop
  endfacet
  facet normal -0 0 1
    outer loop
      vertex -11.5272 0.975231 5.1
      vertex -11.4589 -1.1976 5.1
      vertex -11.4589 1.6976 5.1
    endloop
  endfacet
  facet normal 0 0 1
    outer loop
      vertex -11.5272 0.975231 5.1
      vertex -11.5272 -0.475231 5.1
      vertex -11.4589 -1.1976 5.1
    endloop
  endfacet
  facet normal 0 -0 1
    outer loop
      vertex -11.5272 -0.475231 5.1
      vertex -11.5272 0.975231 5.1
      vertex -11.55 0.25 5.1
    endloop
  endfacet
endsolid OpenSCAD_Model
